<svg xmlns="http://www.w3.org/2000/svg" xmlns:xlink="http://www.w3.org/1999/xlink" viewBox="0 0 670 500"><defs><style>.cls-1{fill:#ca982b;}.cls-2{fill:#523a29;}.cls-3{fill:#f59d19;}.cls-4{fill:#dbd9dc;}.cls-5{fill:#ffd500;}.cls-6{fill:#ffe864;}.cls-7{fill:#797979;}.cls-8{fill:#5f5e63;}.cls-9{fill:url(#Gradient_bez_nazwy_16);}.cls-10{fill:url(#Gradient_bez_nazwy_16-2);}.cls-11{fill:url(#Gradient_bez_nazwy_16-3);}.cls-12{fill:url(#Gradient_bez_nazwy_16-5);}.cls-13{fill:url(#Gradient_bez_nazwy_16-6);}.cls-14{fill:url(#Gradient_bez_nazwy_16-7);}.cls-15{fill:url(#Gradient_bez_nazwy_16-8);}.cls-16{fill:url(#Gradient_bez_nazwy_16-9);}.cls-17{fill:url(#Gradient_bez_nazwy_16-10);}</style><linearGradient id="Gradient_bez_nazwy_16" x1="126.1" y1="548.65" x2="128.12" y2="548.65" gradientTransform="matrix(93.89, 0, 0, -93.89, -11409.79, 51700.2)" gradientUnits="userSpaceOnUse"><stop offset="0" stop-color="#706f6f"/><stop offset="0.15" stop-color="#a2a1a1"/><stop offset="0.36" stop-color="#e5e4e4"/><stop offset="0.46" stop-color="#fff"/><stop offset="0.59" stop-color="#e2e2e2"/><stop offset="0.88" stop-color="#989898"/><stop offset="1" stop-color="#797979"/></linearGradient><linearGradient id="Gradient_bez_nazwy_16-2" x1="126.1" y1="549.73" x2="128.12" y2="549.73" xlink:href="#Gradient_bez_nazwy_16"/><linearGradient id="Gradient_bez_nazwy_16-3" x1="126.1" y1="549.73" x2="128.12" y2="549.73" xlink:href="#Gradient_bez_nazwy_16"/><linearGradient id="Gradient_bez_nazwy_16-5" x1="126.1" y1="549.19" x2="128.12" y2="549.19" xlink:href="#Gradient_bez_nazwy_16"/><linearGradient id="Gradient_bez_nazwy_16-6" x1="126.1" y1="546.24" x2="128.12" y2="546.24" xlink:href="#Gradient_bez_nazwy_16"/><linearGradient id="Gradient_bez_nazwy_16-7" x1="126.1" y1="547.32" x2="128.12" y2="547.32" xlink:href="#Gradient_bez_nazwy_16"/><linearGradient id="Gradient_bez_nazwy_16-8" x1="126.1" y1="547.32" x2="128.12" y2="547.32" xlink:href="#Gradient_bez_nazwy_16"/><linearGradient id="Gradient_bez_nazwy_16-9" x1="126.1" y1="546.24" x2="128.12" y2="546.24" xlink:href="#Gradient_bez_nazwy_16"/><linearGradient id="Gradient_bez_nazwy_16-10" x1="126.1" y1="546.78" x2="128.12" y2="546.78" xlink:href="#Gradient_bez_nazwy_16"/></defs><title>graf_str_06</title><g id="Warstwa_1" data-name="Warstwa 1"><polygon class="cls-1" points="469.77 57.33 469.77 57.33 488.27 83.33 459.73 83.33 469.77 57.33"/><polyline class="cls-2" points="469.76 57.33 469.77 57.33 459.72 83.33 451.26 83.33 469.76 57.33"/><polygon class="cls-3" points="514.92 166.36 280.42 166.36 235.28 102.92 469.77 102.92 514.92 166.36"/><polygon class="cls-4" points="451.26 128.92 459.73 128.92 442.54 173.4 180.15 173.4 180.15 166.36 424.61 166.36 451.26 128.92"/><polygon class="cls-5" points="138.84 166.36 424.61 166.36 469.76 102.92 183.99 102.92 138.84 166.36"/><polygon class="cls-6" points="244.07 102.92 347.09 102.92 415.68 166.36 312.65 166.36 244.07 102.92"/><polygon class="cls-6" points="187.06 102.92 222.03 102.92 290.61 166.36 255.65 166.36 187.06 102.92"/><path class="cls-7" d="M239.62,140h10.12v3.8H233.82v-2.76l10-16.12H233.72v-3.82h15.83v2.69Z"/><path class="cls-7" d="M258.34,129.73l2.66-.83v2.59l-2.66.82V140H267v3.8H253.38v-10l-1.76.54v-2.59l1.76-.54V121.12h5Z"/><path class="cls-7" d="M281.59,139.18h-6.76l-1.32,4.64h-5.24l7.67-22.7h4.54l7.72,22.7h-5.29Zm-5.68-3.82h4.58l-2.29-8.1Z"/><path class="cls-7" d="M297,121.12l4.64,16.42,4.62-16.42h6.47v22.7h-5v-6.14l.45-9.47-4.9,15.61H299.9L295,128.21l.45,9.47v6.14h-5v-22.7Z"/><path class="cls-7" d="M328.4,139.18h-6.76l-1.32,4.64h-5.24l7.67-22.7h4.54l7.72,22.7h-5.29Zm-5.68-3.82h4.59l-2.3-8.1Z"/><path class="cls-7" d="M354.47,143.82h-5l-7.25-14.89v14.89h-5v-22.7h5L349.53,136V121.12h4.94Z"/><path class="cls-7" d="M363.63,143.82h-5v-22.7h5Z"/><path class="cls-7" d="M379.51,139.18h-6.76l-1.32,4.64h-5.24l7.67-22.7h4.54l7.72,22.7h-5.29Zm-5.68-3.82h4.59l-2.3-8.1Z"/><path class="cls-7" d="M390.93,124.31h-1.24v-7.94l-2.13.88v-1.08l3.17-1.28h.2Z"/><path class="cls-5" d="M422,135.67c0,51.78,45.39,93.76,101.37,93.76s101.36-42,101.36-93.76S579.37,41.92,523.39,41.92,422,83.9,422,135.67"/><path d="M507.83,124.87H500.3V97.6L493,100.22V94.43L507,89.11h.8Z"/><path d="M532.48,112.46h-13v-5.79h13Z"/><path d="M561.25,124.87H538.5V120L549,107.68a27.26,27.26,0,0,0,2.93-4.48,8.48,8.48,0,0,0,.94-3.69,6.75,6.75,0,0,0-.89-3.73,2.87,2.87,0,0,0-2.56-1.35,3.36,3.36,0,0,0-2.9,1.57,7.74,7.74,0,0,0-1.07,4.42h-7.53a12.44,12.44,0,0,1,1.47-6,10.45,10.45,0,0,1,4.13-4.23,12,12,0,0,1,6-1.51c3.45,0,6.12.88,8,2.64s2.85,4.25,2.85,7.49a13.46,13.46,0,0,1-1.58,6.12,37.94,37.94,0,0,1-5.72,7.64l-5,6.54h13.12Z"/><path class="cls-8" d="M489.11,134.47v3.45h2v2.76h-2v7a2,2,0,0,0,.24,1.15,1.16,1.16,0,0,0,.95.31,4,4,0,0,0,.94-.09l0,2.86a6.7,6.7,0,0,1-2.19.35q-3.84,0-3.89-4.09v-7.47h-1.75v-2.76h1.75v-3.45Z"/><path class="cls-8" d="M500.54,152a4.88,4.88,0,0,1-.34-1.09,3.48,3.48,0,0,1-2.89,1.35,4.48,4.48,0,0,1-3.17-1.17,4,4,0,0,1-1.26-3,4.12,4.12,0,0,1,1.53-3.42,7.08,7.08,0,0,1,4.39-1.23H500v-1.13a2,2,0,0,0-.36-1.34,1.29,1.29,0,0,0-1-.39c-1,0-1.49.54-1.49,1.61h-4a3.91,3.91,0,0,1,1.58-3.21,6.13,6.13,0,0,1,4-1.27,5.68,5.68,0,0,1,3.87,1.2A4.36,4.36,0,0,1,504,142.3v6.61a6.62,6.62,0,0,0,.56,2.85V152Zm-2.35-2.63a2.45,2.45,0,0,0,1.13-.24,1.86,1.86,0,0,0,.69-.59V145.6h-1a2.1,2.1,0,0,0-1.59.6,2.18,2.18,0,0,0-.59,1.59Q496.87,149.35,498.19,149.35Z"/><path class="cls-8" d="M518.71,145.4a9,9,0,0,1-1.18,5.13,4.18,4.18,0,0,1-3.71,1.71,3.73,3.73,0,0,1-3.17-1.65l-.13,1.39h-3.66V132h4v7a3.63,3.63,0,0,1,3-1.4,4.19,4.19,0,0,1,3.7,1.7,8.79,8.79,0,0,1,1.21,5Zm-4-.92a6.39,6.39,0,0,0-.47-3,1.72,1.72,0,0,0-1.61-.76,2,2,0,0,0-1.83,1v6.41a1.93,1.93,0,0,0,1.86,1,1.73,1.73,0,0,0,1.58-.68,5.72,5.72,0,0,0,.47-2.68Z"/><path class="cls-8" d="M525.27,152h-4V132h4Z"/><path class="cls-8" d="M534.48,152.24a5.91,5.91,0,0,1-6.48-6.52V144.6a7.55,7.55,0,0,1,1.57-5.13,5.64,5.64,0,0,1,4.51-1.81,5.39,5.39,0,0,1,4.31,1.69,7.68,7.68,0,0,1,1.47,5v1.8H532a3.6,3.6,0,0,0,.74,2.29,2.64,2.64,0,0,0,2,.72,4.64,4.64,0,0,0,3.32-1.26l1.56,2.23a5.1,5.1,0,0,1-2.12,1.51A7.85,7.85,0,0,1,534.48,152.24Zm-2.5-8.63h4v-.34a3.73,3.73,0,0,0-.45-1.91,1.61,1.61,0,0,0-1.46-.65,1.68,1.68,0,0,0-1.51.69A4.44,4.44,0,0,0,532,143.61Z"/><path class="cls-8" d="M546.73,134.47v3.45h2v2.76h-2v7a2,2,0,0,0,.24,1.15,1.16,1.16,0,0,0,.95.31,4,4,0,0,0,.94-.09l0,2.86a6.81,6.81,0,0,1-2.2.35q-3.84,0-3.89-4.09v-7.47H541v-2.76h1.75v-3.45Z"/><path class="cls-8" d="M556,146.56l-1.06,1.1V152h-4V132h4v10.79l.49-.68,2.75-4.21h4.73l-4.41,5.8,4.84,8.26h-4.56Z"/><path class="cls-8" d="M564.71,134.28a1.83,1.83,0,0,1,.58-1.4,2.26,2.26,0,0,1,1.58-.54,2.23,2.23,0,0,1,1.57.54,2,2,0,0,1,0,2.81,2.51,2.51,0,0,1-3.16,0A1.86,1.86,0,0,1,564.71,134.28Zm4.17,17.7h-4V137.92h4Z"/><path class="cls-8" d="M478.66,171.63a8.68,8.68,0,0,1,1.26-5.16,4.31,4.31,0,0,1,3.68-1.7,3.63,3.63,0,0,1,2.92,1.41v-7.05h4v20h-3.61l-.19-1.43a3.73,3.73,0,0,1-3.14,1.69,4.29,4.29,0,0,1-3.65-1.69,8.37,8.37,0,0,1-1.28-5Zm4,.92a6.41,6.41,0,0,0,.47,2.91,1.72,1.72,0,0,0,1.62.82,2,2,0,0,0,1.78-1v-6.42a1.91,1.91,0,0,0-1.77-1,1.74,1.74,0,0,0-1.6.82,6.07,6.07,0,0,0-.5,2.91Z"/><path class="cls-8" d="M497.84,176h6v3.06H493.12v-2.3L499,168.1h-5.73V165h10.51v2.22Z"/><path class="cls-8" d="M506.46,161.4a1.85,1.85,0,0,1,.59-1.41,2.26,2.26,0,0,1,1.58-.54,2.23,2.23,0,0,1,1.57.54,2,2,0,0,1,0,2.81,2.51,2.51,0,0,1-3.16,0A1.86,1.86,0,0,1,506.46,161.4Zm4.18,17.69h-4V165h4Z"/><path class="cls-8" d="M519.85,179.35a5.92,5.92,0,0,1-6.49-6.52v-1.12a7.6,7.6,0,0,1,1.57-5.13,5.65,5.65,0,0,1,4.51-1.81,5.35,5.35,0,0,1,4.31,1.7,7.58,7.58,0,0,1,1.48,5v1.8h-7.91a3.66,3.66,0,0,0,.75,2.29,2.61,2.61,0,0,0,2,.72,4.66,4.66,0,0,0,3.33-1.26l1.56,2.23a5.16,5.16,0,0,1-2.12,1.51A7.89,7.89,0,0,1,519.85,179.35Zm-2.5-8.63h4v-.34a3.74,3.74,0,0,0-.44-1.91,1.63,1.63,0,0,0-1.47-.64,1.7,1.7,0,0,0-1.51.68A4.57,4.57,0,0,0,517.35,170.72Z"/><path class="cls-8" d="M531.11,165l.11,1.39a4.35,4.35,0,0,1,3.53-1.65c2.61,0,4,1.7,4,5.08v9.24h-4v-9a3.1,3.1,0,0,0-.38-1.73,1.56,1.56,0,0,0-1.36-.54,1.85,1.85,0,0,0-1.68,1v10.21h-4V165Z"/><path class="cls-8" d="M545.27,165l.11,1.39a4.33,4.33,0,0,1,3.53-1.65c2.61,0,4,1.7,4,5.08v9.24h-4v-9a3,3,0,0,0-.39-1.73,1.55,1.55,0,0,0-1.35-.54,1.87,1.87,0,0,0-1.69,1v10.21h-4V165Z"/><path class="cls-8" d="M555.79,161.4a1.81,1.81,0,0,1,.59-1.41,2.55,2.55,0,0,1,3.14,0,1.81,1.81,0,0,1,.59,1.41,1.85,1.85,0,0,1-.58,1.4,2.51,2.51,0,0,1-3.16,0A1.85,1.85,0,0,1,555.79,161.4ZM560,179.09h-4V165h4Z"/><path class="cls-8" d="M569.17,179.35a5.93,5.93,0,0,1-6.49-6.52v-1.12a7.55,7.55,0,0,1,1.58-5.13,5.62,5.62,0,0,1,4.5-1.81,5.38,5.38,0,0,1,4.32,1.7,7.64,7.64,0,0,1,1.47,5v1.8h-7.91a3.66,3.66,0,0,0,.75,2.29,2.63,2.63,0,0,0,2,.72,4.66,4.66,0,0,0,3.33-1.26l1.56,2.23a5.1,5.1,0,0,1-2.12,1.51A7.89,7.89,0,0,1,569.17,179.35Zm-2.5-8.63h4v-.34a3.73,3.73,0,0,0-.45-1.91,1.61,1.61,0,0,0-1.46-.64,1.68,1.68,0,0,0-1.51.68A4.44,4.44,0,0,0,566.67,170.72Z"/><path class="cls-9" d="M614.18,151.73h0a3,3,0,0,1,3.55-2.18,2.8,2.8,0,0,1,2.37,3.28h0a3,3,0,0,1-3.55,2.19,2.8,2.8,0,0,1-2.37-3.29ZM609,167.43h0a3.11,3.11,0,0,1,3.95-1.49,2.73,2.73,0,0,1,1.62,3.66h0a3.12,3.12,0,0,1-4,1.48A2.72,2.72,0,0,1,609,167.43Zm-8.47,14.43h0a3.17,3.17,0,0,1,4.19-.74,2.67,2.67,0,0,1,.8,3.88h0a3.18,3.18,0,0,1-4.19.74,2.66,2.66,0,0,1-.8-3.88Zm-11.38,12.62h0a3.21,3.21,0,0,1,4.27,0,2.65,2.65,0,0,1,0,4h0a3.2,3.2,0,0,1-4.27,0,2.65,2.65,0,0,1,0-4ZM575.3,204.83h0a3.18,3.18,0,0,1,4.18.79,2.67,2.67,0,0,1-.86,3.87h0a3.18,3.18,0,0,1-4.18-.79,2.67,2.67,0,0,1,.86-3.87Zm-15.72,7.68h0a3.1,3.1,0,0,1,3.93,1.52,2.72,2.72,0,0,1-1.65,3.64h0a3.09,3.09,0,0,1-3.93-1.53,2.72,2.72,0,0,1,1.65-3.63Zm-17,4.7h0a3,3,0,0,1,3.53,2.21,2.8,2.8,0,0,1-2.38,3.27h0a3,3,0,0,1-3.54-2.21,2.81,2.81,0,0,1,2.39-3.27Z"/><path class="cls-10" d="M542.57,53.53h0a2.8,2.8,0,0,1-2.38-3.27,3,3,0,0,1,3.53-2.21h0a2.81,2.81,0,0,1,2.39,3.28,3,3,0,0,1-3.54,2.2Zm17,4.71h0a2.73,2.73,0,0,1-1.65-3.64,3.12,3.12,0,0,1,3.94-1.53h0a2.72,2.72,0,0,1,1.65,3.64,3.11,3.11,0,0,1-3.94,1.53Zm15.71,7.67h0a2.67,2.67,0,0,1-.85-3.87,3.17,3.17,0,0,1,4.18-.79h0a2.67,2.67,0,0,1,.85,3.87,3.18,3.18,0,0,1-4.18.79Zm13.81,10.34h0a2.64,2.64,0,0,1,0-3.94,3.2,3.2,0,0,1,4.27,0h0a2.64,2.64,0,0,1,0,3.94,3.19,3.19,0,0,1-4.27,0Zm11.38,12.63h0a2.66,2.66,0,0,1,.8-3.88,3.18,3.18,0,0,1,4.19.74h0a2.66,2.66,0,0,1-.8,3.88,3.18,3.18,0,0,1-4.19-.74ZM609,103.32h0a2.72,2.72,0,0,1,1.61-3.66,3.11,3.11,0,0,1,3.95,1.49h0a2.73,2.73,0,0,1-1.61,3.66A3.11,3.11,0,0,1,609,103.32Zm5.22,15.7h0a2.81,2.81,0,0,1,2.36-3.29,3,3,0,0,1,3.55,2.19h0a2.8,2.8,0,0,1-2.36,3.28,3,3,0,0,1-3.55-2.18Z"/><path class="cls-11" d="M435.51,119h0a3,3,0,0,1-3.56,2.19,2.81,2.81,0,0,1-2.36-3.29h0a3,3,0,0,1,3.55-2.18,2.81,2.81,0,0,1,2.37,3.28Zm5.21-15.69h0a3.11,3.11,0,0,1-4,1.49,2.73,2.73,0,0,1-1.61-3.66h0a3.12,3.12,0,0,1,3.95-1.49A2.72,2.72,0,0,1,440.72,103.31Zm8.48-14.43h0a3.18,3.18,0,0,1-4.19.74,2.66,2.66,0,0,1-.8-3.88h0A3.18,3.18,0,0,1,448.4,85a2.66,2.66,0,0,1,.8,3.88Zm11.38-12.63h0a3.2,3.2,0,0,1-4.27,0,2.64,2.64,0,0,1,0-3.94h0a3.2,3.2,0,0,1,4.27,0,2.64,2.64,0,0,1,0,3.94Zm13.81-10.34h0a3.17,3.17,0,0,1-4.18-.8,2.66,2.66,0,0,1,.86-3.86h0a3.16,3.16,0,0,1,4.18.79,2.68,2.68,0,0,1-.86,3.87Zm15.72-7.68h0a3.1,3.1,0,0,1-3.93-1.53,2.71,2.71,0,0,1,1.65-3.63h0a3.1,3.1,0,0,1,3.93,1.52,2.72,2.72,0,0,1-1.65,3.64Zm17-4.7h0a3,3,0,0,1-3.54-2.21A2.81,2.81,0,0,1,506,48.05h0a3,3,0,0,1,3.54,2.2,2.82,2.82,0,0,1-2.39,3.28Z"/><path class="cls-9" d="M507.12,217.21h0a2.8,2.8,0,0,1,2.38,3.27,3,3,0,0,1-3.54,2.21h0a2.82,2.82,0,0,1-2.38-3.28,3,3,0,0,1,3.54-2.2Zm-17-4.71h0a2.71,2.71,0,0,1,1.65,3.64,3.1,3.1,0,0,1-3.93,1.53h0a2.73,2.73,0,0,1-1.65-3.64,3.1,3.1,0,0,1,3.93-1.53Zm-15.7-7.67h0a2.66,2.66,0,0,1,.85,3.86,3.17,3.17,0,0,1-4.18.8h0a2.67,2.67,0,0,1-.85-3.87,3.16,3.16,0,0,1,4.18-.79Zm-13.81-10.35h0a2.65,2.65,0,0,1,0,4,3.2,3.2,0,0,1-4.27,0h0a2.65,2.65,0,0,1,0-4,3.21,3.21,0,0,1,4.27,0ZM449.2,181.86h0a2.65,2.65,0,0,1-.8,3.87,3.16,3.16,0,0,1-4.19-.74h0a2.65,2.65,0,0,1,.8-3.87,3.16,3.16,0,0,1,4.19.74Zm-8.48-14.44h0a2.72,2.72,0,0,1-1.61,3.66,3.12,3.12,0,0,1-3.95-1.49h0a2.72,2.72,0,0,1,1.61-3.66,3.12,3.12,0,0,1,4,1.49Zm-5.22-15.7h0a2.81,2.81,0,0,1-2.36,3.29,3,3,0,0,1-3.55-2.19h0a2.81,2.81,0,0,1,2.36-3.29,3,3,0,0,1,3.55,2.19Z"/><path class="cls-12" d="M524.84,218.79a3.16,3.16,0,0,1,2.14.81,2.66,2.66,0,0,1,0,4,3.19,3.19,0,0,1-4.27,0,2.66,2.66,0,0,1,0-4A3.15,3.15,0,0,1,524.84,218.79Zm-94.1-86.21a3.16,3.16,0,0,1,2.13.82,2.65,2.65,0,0,1,0,3.94,3.19,3.19,0,0,1-4.27,0,2.65,2.65,0,0,1,0-3.94A3.17,3.17,0,0,1,430.74,132.58Zm94.1-86.21a3.17,3.17,0,0,1,2.14.82,2.71,2.71,0,0,1,.88,2,2.68,2.68,0,0,1-.88,2,3.19,3.19,0,0,1-4.27,0,2.68,2.68,0,0,1-.88-2,2.71,2.71,0,0,1,.88-2A3.16,3.16,0,0,1,524.84,46.37ZM619,132.58a3.15,3.15,0,0,1,2.13.82,2.63,2.63,0,0,1,0,3.94,3.18,3.18,0,0,1-4.26,0,2.65,2.65,0,0,1,0-3.94A3.16,3.16,0,0,1,619,132.58Z"/></g><g id="Warstwa_2" data-name="Warstwa 2"><polygon class="cls-1" points="469.77 284.19 469.77 284.19 488.27 310.19 459.73 310.19 469.77 284.19"/><polyline class="cls-2" points="469.76 284.19 469.77 284.19 459.72 310.19 451.26 310.19 469.76 284.19"/><polygon class="cls-3" points="514.92 387.64 280.42 387.64 235.28 324.2 469.77 324.2 514.92 387.64"/><polygon class="cls-4" points="451.26 350.2 459.73 350.2 442.54 394.68 180.15 394.68 180.15 387.64 424.61 387.64 451.26 350.2"/><polygon class="cls-5" points="138.84 387.64 424.61 387.64 469.76 324.2 183.99 324.2 138.84 387.64"/><polygon class="cls-6" points="244.07 324.2 347.09 324.2 415.68 387.64 312.65 387.64 244.07 324.2"/><polygon class="cls-6" points="187.06 324.2 222.03 324.2 290.61 387.64 255.65 387.64 187.06 324.2"/><path class="cls-7" d="M215.76,355.79a10.11,10.11,0,0,1-2.33,7.1,9.62,9.62,0,0,1-13,0,9.93,9.93,0,0,1-2.39-7V352a10.61,10.61,0,0,1,2.34-7.31,9.37,9.37,0,0,1,13,0q2.35,2.58,2.39,7.25Zm-5-3.8a8.72,8.72,0,0,0-.95-4.57,3.65,3.65,0,0,0-5.85-.06,8.38,8.38,0,0,0-1,4.39v4a7.92,7.92,0,0,0,1,4.39,3.35,3.35,0,0,0,3,1.41,3.27,3.27,0,0,0,2.89-1.38,7.74,7.74,0,0,0,1-4.28Z"/><path class="cls-7" d="M229.69,359.15a2.72,2.72,0,0,0-.77-2.1,8.84,8.84,0,0,0-2.79-1.48,13.16,13.16,0,0,1-5.31-3,5.83,5.83,0,0,1-1.62-4.11,5.61,5.61,0,0,1,2.2-4.61,8.74,8.74,0,0,1,5.59-1.74,9,9,0,0,1,4,.88,6.47,6.47,0,0,1,2.73,2.49,7.07,7.07,0,0,1,.95,3.65h-4.94a3.54,3.54,0,0,0-.74-2.42,2.64,2.64,0,0,0-2.11-.84,2.8,2.8,0,0,0-2,.71,2.56,2.56,0,0,0-.72,1.91,2.27,2.27,0,0,0,.81,1.69,9.26,9.26,0,0,0,2.87,1.57,12.36,12.36,0,0,1,5.21,2.95,6.24,6.24,0,0,1,1.63,4.44,5.67,5.67,0,0,1-2,4.64,8.53,8.53,0,0,1-5.55,1.67,10.24,10.24,0,0,1-4.33-.91,7.2,7.2,0,0,1-3.06-2.59,7.06,7.06,0,0,1-1.11-4h5a4.07,4.07,0,0,0,.83,2.86,3.54,3.54,0,0,0,2.69.89A2.27,2.27,0,0,0,229.69,359.15Z"/><path class="cls-7" d="M253.87,346.22H247.8V365.1h-5V346.22h-6v-3.83h17Z"/><path class="cls-7" d="M269.4,355.28h-7.72v6h9.14v3.8h-14.1V342.39h14.07v3.83h-9.11v5.36h7.72Z"/><path class="cls-7" d="M291,355.79a10.11,10.11,0,0,1-2.33,7.1,9.62,9.62,0,0,1-13,0,9.93,9.93,0,0,1-2.39-7V352a10.61,10.61,0,0,1,2.34-7.31,9.37,9.37,0,0,1,13,0q2.35,2.58,2.39,7.25Zm-5-3.8a8.72,8.72,0,0,0-1-4.57,3.21,3.21,0,0,0-2.93-1.5,3.24,3.24,0,0,0-2.92,1.44,8.38,8.38,0,0,0-1,4.39v4a7.82,7.82,0,0,0,1,4.39,3.34,3.34,0,0,0,3,1.41,3.26,3.26,0,0,0,2.89-1.38,7.74,7.74,0,0,0,1-4.28Z"/><path class="cls-7" d="M299.47,357.12v8h-5V342.39h8.37a8,8,0,0,1,5.8,2.09,7.21,7.21,0,0,1,2.17,5.43,6.73,6.73,0,0,1-2.14,5.27,8.55,8.55,0,0,1-5.94,1.94Zm0-3.82h3.41a2.82,2.82,0,0,0,2.19-.86,3.63,3.63,0,0,0,.77-2.5,4.23,4.23,0,0,0-.79-2.7,2.61,2.61,0,0,0-2.12-1h-3.46Z"/><path class="cls-7" d="M331.44,355.79a10.07,10.07,0,0,1-2.34,7.1,8.38,8.38,0,0,1-6.48,2.53,8.49,8.49,0,0,1-6.49-2.51,9.93,9.93,0,0,1-2.4-7V352a10.61,10.61,0,0,1,2.35-7.31,9.36,9.36,0,0,1,13,0q2.37,2.58,2.4,7.25Zm-5-3.8a8.72,8.72,0,0,0-1-4.57,3.65,3.65,0,0,0-5.85-.06,8.29,8.29,0,0,0-1,4.39v4a7.92,7.92,0,0,0,1,4.39,3.34,3.34,0,0,0,3,1.41,3.25,3.25,0,0,0,2.88-1.38,7.82,7.82,0,0,0,1-4.28Z"/><path class="cls-7" d="M342.43,356.81H340v8.29h-5V342.39h7.9a8.44,8.44,0,0,1,5.76,1.79,6.38,6.38,0,0,1,2,5.08q0,4.51-3.55,6.33l4.3,9.29v.22h-5.33ZM340,353h2.82a2.67,2.67,0,0,0,2.22-.91,3.72,3.72,0,0,0,.75-2.44c0-2.28-1-3.41-2.89-3.41H340Z"/><path class="cls-7" d="M371.4,355.79c0,3-.77,5.41-2.33,7.1a8.41,8.41,0,0,1-6.48,2.53,8.51,8.51,0,0,1-6.5-2.51,9.93,9.93,0,0,1-2.39-7V352a10.61,10.61,0,0,1,2.34-7.31,9.37,9.37,0,0,1,13,0q2.36,2.58,2.39,7.25Zm-5-3.8a8.73,8.73,0,0,0-.94-4.57,3.66,3.66,0,0,0-5.86-.06,8.3,8.3,0,0,0-1,4.39v4a7.92,7.92,0,0,0,1,4.39,3.34,3.34,0,0,0,3,1.41,3.25,3.25,0,0,0,2.88-1.38,7.74,7.74,0,0,0,1-4.28Z"/><path class="cls-7" d="M380.11,361.3h10.11v3.8H374.31v-2.76l10-16.12H374.2v-3.83H390v2.7Z"/><path class="cls-7" d="M405,360.46h-6.77l-1.31,4.64h-5.25l7.68-22.71h4.53l7.73,22.71h-5.3Zm-5.69-3.83h4.59l-2.29-8.09Z"/><path class="cls-7" d="M416.41,345.59h-1.24v-7.94l-2.13.88v-1.08l3.18-1.28h.19Z"/><path class="cls-5" d="M422,362.53c0,51.78,45.39,93.76,101.37,93.76s101.36-42,101.36-93.76-45.38-93.75-101.36-93.75S422,310.76,422,362.53"/><path d="M513.93,351.72H491.19v-4.9l10.44-12.29a26.59,26.59,0,0,0,2.93-4.47,8.37,8.37,0,0,0,.94-3.69,6.66,6.66,0,0,0-.89-3.73,2.87,2.87,0,0,0-2.55-1.35,3.38,3.38,0,0,0-2.91,1.57,7.82,7.82,0,0,0-1.07,4.42h-7.53a12.41,12.41,0,0,1,1.47-6,10.41,10.41,0,0,1,4.14-4.23,12,12,0,0,1,6-1.51q5.18,0,8,2.64t2.85,7.49a13.46,13.46,0,0,1-1.58,6.12,37.53,37.53,0,0,1-5.71,7.63l-5,6.55h13.12Z"/><path d="M532.36,339.32h-13v-5.79h13Z"/><path d="M558.16,338.24h3.29V344h-3.29v7.72h-7.51V344H537.88l-.35-4.49L550.63,316h7.53Zm-13.34,0h5.83V326.29l-.15.27Z"/><path class="cls-8" d="M488.33,361.33v3.45h2v2.76h-2v7a1.9,1.9,0,0,0,.25,1.15,1.18,1.18,0,0,0,.95.31,4.1,4.1,0,0,0,.94-.09l0,2.86a6.79,6.79,0,0,1-2.19.35c-2.57,0-3.86-1.37-3.89-4.09v-7.47H482.6v-2.76h1.76v-3.45Z"/><path class="cls-8" d="M499.76,378.84a5,5,0,0,1-.33-1.09,3.51,3.51,0,0,1-2.9,1.35,4.44,4.44,0,0,1-3.16-1.17,4,4,0,0,1-1.26-3,4.14,4.14,0,0,1,1.52-3.42,7.1,7.1,0,0,1,4.39-1.23h1.21v-1.13a2,2,0,0,0-.35-1.34,1.33,1.33,0,0,0-1-.39c-1,0-1.48.54-1.48,1.61h-4a3.94,3.94,0,0,1,1.58-3.21,6.16,6.16,0,0,1,4-1.27,5.66,5.66,0,0,1,3.86,1.2,4.31,4.31,0,0,1,1.37,3.44v6.61a6.47,6.47,0,0,0,.57,2.85v.22Zm-2.34-2.63a2.29,2.29,0,0,0,1.12-.25,1.75,1.75,0,0,0,.69-.58v-2.92h-1a2.13,2.13,0,0,0-1.6.6,2.16,2.16,0,0,0-.58,1.59Q496.1,376.21,497.42,376.21Z"/><path class="cls-8" d="M517.94,372.26a9.13,9.13,0,0,1-1.18,5.13,4.2,4.2,0,0,1-3.71,1.71,3.72,3.72,0,0,1-3.17-1.65l-.13,1.39h-3.67v-20h4v7a3.61,3.61,0,0,1,3-1.4,4.21,4.21,0,0,1,3.71,1.7,8.86,8.86,0,0,1,1.21,5Zm-4-.92a6.42,6.42,0,0,0-.46-3,1.74,1.74,0,0,0-1.62-.76,1.93,1.93,0,0,0-1.82,1v6.41a1.93,1.93,0,0,0,1.85,1,1.72,1.72,0,0,0,1.58-.69,5.54,5.54,0,0,0,.47-2.67Z"/><path class="cls-8" d="M524.49,378.84h-4v-20h4Z"/><path class="cls-8" d="M533.71,379.1a5.92,5.92,0,0,1-6.49-6.52v-1.12a7.55,7.55,0,0,1,1.57-5.13,5.64,5.64,0,0,1,4.51-1.81,5.34,5.34,0,0,1,4.31,1.69,7.63,7.63,0,0,1,1.48,5V373h-7.91a3.66,3.66,0,0,0,.74,2.29,2.64,2.64,0,0,0,2,.72,4.66,4.66,0,0,0,3.33-1.26l1.56,2.22a5.16,5.16,0,0,1-2.12,1.52A7.92,7.92,0,0,1,533.71,379.1Zm-2.5-8.63h4v-.34a3.73,3.73,0,0,0-.45-1.91,1.61,1.61,0,0,0-1.46-.65,1.71,1.71,0,0,0-1.51.69A4.46,4.46,0,0,0,531.21,370.47Z"/><path class="cls-8" d="M546,361.33v3.45h2v2.76h-2v7a2,2,0,0,0,.25,1.15,1.18,1.18,0,0,0,.95.31,4.1,4.1,0,0,0,.94-.09l0,2.86a6.7,6.7,0,0,1-2.19.35c-2.57,0-3.86-1.37-3.89-4.09v-7.47h-1.76v-2.76H542v-3.45Z"/><path class="cls-8" d="M555.21,373.42l-1.07,1.1v4.32h-4v-20h4v10.79l.49-.68,2.76-4.21h4.73l-4.41,5.79,4.83,8.27H558Z"/><path class="cls-8" d="M563.93,361.14a1.83,1.83,0,0,1,.59-1.4,2.23,2.23,0,0,1,1.57-.54,2.26,2.26,0,0,1,1.58.54,1.83,1.83,0,0,1,.59,1.4,1.88,1.88,0,0,1-.59,1.41,2.51,2.51,0,0,1-3.16,0A1.87,1.87,0,0,1,563.93,361.14Zm4.17,17.7h-4V364.78h4Z"/><path class="cls-8" d="M470.17,406H458.12v-2.6l5.53-6.51a14,14,0,0,0,1.55-2.37,4.48,4.48,0,0,0,.5-2,3.59,3.59,0,0,0-.47-2,1.52,1.52,0,0,0-1.36-.71,1.74,1.74,0,0,0-1.53.83,4.09,4.09,0,0,0-.57,2.34h-4a6.58,6.58,0,0,1,.78-3.19,5.56,5.56,0,0,1,2.19-2.24,6.38,6.38,0,0,1,3.19-.8,6,6,0,0,1,4.25,1.4,5.12,5.12,0,0,1,1.51,4,7.22,7.22,0,0,1-.83,3.24,20.5,20.5,0,0,1-3,4.05l-2.63,3.46h7Z"/><path class="cls-8" d="M484.49,396.06l1.77-4.17h4.21L487,398.76l3.6,7.19h-4.23l-1.87-4.41L482.65,406h-4.24l3.59-7.19-3.44-6.87h4.23Z"/><path class="cls-8" d="M498.52,398.49a8.68,8.68,0,0,1,1.26-5.16,4.32,4.32,0,0,1,3.68-1.7,3.65,3.65,0,0,1,2.92,1.4v-7h4v20h-3.61l-.18-1.43a3.76,3.76,0,0,1-3.15,1.69,4.26,4.26,0,0,1-3.64-1.69,8.36,8.36,0,0,1-1.29-5Zm4,.92a6.25,6.25,0,0,0,.48,2.91,1.69,1.69,0,0,0,1.61.82,2,2,0,0,0,1.78-1v-6.42a1.91,1.91,0,0,0-1.76-1,1.74,1.74,0,0,0-1.61.82,6,6,0,0,0-.5,2.91Z"/><path class="cls-8" d="M517.7,402.89h6V406H513v-2.3l5.88-8.69h-5.74v-3.07h10.51v2.22Z"/><path class="cls-8" d="M526.33,388.25a1.79,1.79,0,0,1,.59-1.4,2.55,2.55,0,0,1,3.14,0,1.79,1.79,0,0,1,.59,1.4,1.86,1.86,0,0,1-.58,1.41,2.51,2.51,0,0,1-3.16,0A1.86,1.86,0,0,1,526.33,388.25ZM530.5,406h-4V391.89h4Z"/><path class="cls-8" d="M539.71,406.21a5.93,5.93,0,0,1-6.49-6.52v-1.12a7.6,7.6,0,0,1,1.57-5.13,5.65,5.65,0,0,1,4.51-1.81,5.41,5.41,0,0,1,4.32,1.69,7.68,7.68,0,0,1,1.47,5v1.8h-7.91a3.66,3.66,0,0,0,.75,2.29,2.63,2.63,0,0,0,2,.72,4.66,4.66,0,0,0,3.33-1.26l1.56,2.22a5.09,5.09,0,0,1-2.12,1.52A7.89,7.89,0,0,1,539.71,406.21Zm-2.5-8.63h4v-.34a3.73,3.73,0,0,0-.45-1.91,1.61,1.61,0,0,0-1.46-.65,1.68,1.68,0,0,0-1.51.69A4.44,4.44,0,0,0,537.21,397.58Z"/><path class="cls-8" d="M551,391.89l.12,1.39a4.33,4.33,0,0,1,3.52-1.65c2.61,0,4,1.69,4,5.08V406h-4v-9a3,3,0,0,0-.38-1.73,1.56,1.56,0,0,0-1.36-.54,1.85,1.85,0,0,0-1.68,1V406h-4V391.89Z"/><path class="cls-8" d="M565.13,391.89l.11,1.39a4.35,4.35,0,0,1,3.53-1.65q3.91,0,4,5.08V406h-4v-9a3,3,0,0,0-.39-1.73,1.54,1.54,0,0,0-1.35-.54,1.88,1.88,0,0,0-1.69,1V406h-4V391.89Z"/><path class="cls-8" d="M575.65,388.25a1.83,1.83,0,0,1,.59-1.4,2.23,2.23,0,0,1,1.57-.54,2.26,2.26,0,0,1,1.58.54,1.83,1.83,0,0,1,.59,1.4,1.86,1.86,0,0,1-.59,1.41,2.51,2.51,0,0,1-3.16,0A1.86,1.86,0,0,1,575.65,388.25Zm4.17,17.7h-4V391.89h4Z"/><path class="cls-8" d="M589,406.21a5.93,5.93,0,0,1-6.49-6.52v-1.12a7.55,7.55,0,0,1,1.58-5.13,5.64,5.64,0,0,1,4.51-1.81,5.39,5.39,0,0,1,4.31,1.69,7.68,7.68,0,0,1,1.47,5v1.8H586.5a3.66,3.66,0,0,0,.75,2.29,2.64,2.64,0,0,0,2,.72,4.64,4.64,0,0,0,3.32-1.26l1.56,2.22a5,5,0,0,1-2.12,1.52A7.85,7.85,0,0,1,589,406.21Zm-2.5-8.63h4v-.34a3.73,3.73,0,0,0-.45-1.91,1.61,1.61,0,0,0-1.46-.65,1.68,1.68,0,0,0-1.51.69A4.44,4.44,0,0,0,586.53,397.58Z"/><path class="cls-13" d="M614.18,378.59h0a3,3,0,0,1,3.55-2.18,2.8,2.8,0,0,1,2.37,3.28h0a3,3,0,0,1-3.55,2.19,2.8,2.8,0,0,1-2.37-3.29ZM609,394.29h0a3.11,3.11,0,0,1,3.95-1.49,2.73,2.73,0,0,1,1.62,3.66h0a3.12,3.12,0,0,1-4,1.48A2.72,2.72,0,0,1,609,394.29Zm-8.47,14.43h0a3.17,3.17,0,0,1,4.19-.74,2.67,2.67,0,0,1,.8,3.88h0a3.18,3.18,0,0,1-4.19.74,2.66,2.66,0,0,1-.8-3.88Zm-11.38,12.62h0a3.21,3.21,0,0,1,4.27,0,2.65,2.65,0,0,1,0,3.95h0a3.2,3.2,0,0,1-4.27,0,2.65,2.65,0,0,1,0-4ZM575.3,431.69h0a3.18,3.18,0,0,1,4.18.79,2.67,2.67,0,0,1-.86,3.87h0a3.18,3.18,0,0,1-4.18-.79,2.67,2.67,0,0,1,.86-3.87Zm-15.72,7.68h0a3.1,3.1,0,0,1,3.93,1.52,2.72,2.72,0,0,1-1.65,3.64h0a3.1,3.1,0,0,1-3.93-1.53,2.72,2.72,0,0,1,1.65-3.63Zm-17,4.7h0a3,3,0,0,1,3.53,2.21,2.8,2.8,0,0,1-2.38,3.27h0a3,3,0,0,1-3.54-2.21,2.81,2.81,0,0,1,2.39-3.27Z"/><path class="cls-14" d="M542.57,280.39h0a2.8,2.8,0,0,1-2.38-3.27,3,3,0,0,1,3.53-2.21h0a2.81,2.81,0,0,1,2.39,3.28,3,3,0,0,1-3.54,2.2Zm17,4.71h0a2.73,2.73,0,0,1-1.65-3.64,3.12,3.12,0,0,1,3.94-1.53h0a2.72,2.72,0,0,1,1.65,3.64,3.11,3.11,0,0,1-3.94,1.53Zm15.71,7.67h0a2.67,2.67,0,0,1-.85-3.87,3.17,3.17,0,0,1,4.18-.79h0a2.67,2.67,0,0,1,.85,3.87,3.18,3.18,0,0,1-4.18.79Zm13.81,10.34h0a2.64,2.64,0,0,1,0-3.94,3.2,3.2,0,0,1,4.27,0h0a2.64,2.64,0,0,1,0,3.94,3.2,3.2,0,0,1-4.27,0Zm11.38,12.63h0a2.66,2.66,0,0,1,.8-3.88,3.18,3.18,0,0,1,4.19.74h0a2.66,2.66,0,0,1-.8,3.88,3.18,3.18,0,0,1-4.19-.74ZM609,330.17h0a2.71,2.71,0,0,1,1.61-3.65,3.11,3.11,0,0,1,3.95,1.49h0a2.71,2.71,0,0,1-1.61,3.65A3.09,3.09,0,0,1,609,330.17Zm5.22,15.71h0a2.81,2.81,0,0,1,2.36-3.29,3,3,0,0,1,3.55,2.19h0a2.8,2.8,0,0,1-2.36,3.28,3,3,0,0,1-3.55-2.18Z"/><path class="cls-15" d="M435.51,345.86h0a3,3,0,0,1-3.56,2.19,2.81,2.81,0,0,1-2.36-3.29h0a3,3,0,0,1,3.55-2.18,2.81,2.81,0,0,1,2.37,3.28Zm5.21-15.69h0a3.11,3.11,0,0,1-4,1.49,2.73,2.73,0,0,1-1.61-3.66h0a3.11,3.11,0,0,1,3.95-1.49A2.72,2.72,0,0,1,440.72,330.17Zm8.48-14.43h0a3.18,3.18,0,0,1-4.19.74,2.66,2.66,0,0,1-.8-3.88h0a3.17,3.17,0,0,1,4.19-.74,2.66,2.66,0,0,1,.8,3.88Zm11.38-12.63h0a3.2,3.2,0,0,1-4.27,0,2.64,2.64,0,0,1,0-3.94h0a3.2,3.2,0,0,1,4.27,0,2.64,2.64,0,0,1,0,3.94Zm13.81-10.34h0a3.18,3.18,0,0,1-4.18-.8,2.66,2.66,0,0,1,.86-3.86h0a3.16,3.16,0,0,1,4.18.79,2.68,2.68,0,0,1-.86,3.87Zm15.72-7.68h0a3.1,3.1,0,0,1-3.93-1.53,2.71,2.71,0,0,1,1.65-3.63h0a3.1,3.1,0,0,1,3.93,1.52,2.72,2.72,0,0,1-1.65,3.64Zm17-4.7h0a3,3,0,0,1-3.54-2.21,2.81,2.81,0,0,1,2.39-3.27h0a3,3,0,0,1,3.54,2.2,2.82,2.82,0,0,1-2.39,3.28Z"/><path class="cls-16" d="M507.12,444.07h0a2.8,2.8,0,0,1,2.38,3.27,3,3,0,0,1-3.54,2.2h0a2.81,2.81,0,0,1-2.38-3.27,3,3,0,0,1,3.54-2.2Zm-17-4.71h0a2.71,2.71,0,0,1,1.65,3.64,3.1,3.1,0,0,1-3.93,1.53h0a2.73,2.73,0,0,1-1.65-3.64,3.1,3.1,0,0,1,3.93-1.53Zm-15.7-7.67h0a2.66,2.66,0,0,1,.85,3.86,3.17,3.17,0,0,1-4.18.8h0a2.67,2.67,0,0,1-.85-3.87,3.16,3.16,0,0,1,4.18-.79Zm-13.81-10.35h0a2.65,2.65,0,0,1,0,4,3.2,3.2,0,0,1-4.27,0h0a2.65,2.65,0,0,1,0-3.95,3.2,3.2,0,0,1,4.27,0ZM449.2,408.72h0a2.65,2.65,0,0,1-.8,3.87,3.16,3.16,0,0,1-4.19-.74h0A2.65,2.65,0,0,1,445,408a3.16,3.16,0,0,1,4.19.74Zm-8.48-14.44h0a2.72,2.72,0,0,1-1.61,3.66,3.12,3.12,0,0,1-3.95-1.49h0a2.72,2.72,0,0,1,1.61-3.66,3.11,3.11,0,0,1,4,1.49Zm-5.22-15.7h0a2.8,2.8,0,0,1-2.36,3.28,3,3,0,0,1-3.55-2.18h0a2.81,2.81,0,0,1,2.36-3.29,3,3,0,0,1,3.55,2.19Z"/><path class="cls-17" d="M524.84,445.65a3.16,3.16,0,0,1,2.14.81,2.66,2.66,0,0,1,0,4,3.19,3.19,0,0,1-4.27,0,2.66,2.66,0,0,1,0-4A3.15,3.15,0,0,1,524.84,445.65Zm-94.1-86.21a3.16,3.16,0,0,1,2.13.82,2.68,2.68,0,0,1,.88,2,2.71,2.71,0,0,1-.88,2,3.19,3.19,0,0,1-4.27,0,2.71,2.71,0,0,1-.88-2,2.68,2.68,0,0,1,.88-2A3.17,3.17,0,0,1,430.74,359.44Zm94.1-86.21a3.17,3.17,0,0,1,2.14.82,2.65,2.65,0,0,1,0,3.94,3.19,3.19,0,0,1-4.27,0,2.65,2.65,0,0,1,0-3.94A3.16,3.16,0,0,1,524.84,273.23ZM619,359.44a3.15,3.15,0,0,1,2.13.82,2.65,2.65,0,0,1,.89,2,2.68,2.68,0,0,1-.89,2,3.18,3.18,0,0,1-4.26,0,2.71,2.71,0,0,1-.88-2,2.68,2.68,0,0,1,.88-2A3.16,3.16,0,0,1,619,359.44Z"/></g></svg>