<svg id="Warstwa_1" data-name="Warstwa 1" xmlns="http://www.w3.org/2000/svg" viewBox="0 0 750 450"><defs><style>.cls-1{font-size:20.67px;}.cls-1,.cls-14,.cls-18,.cls-19,.cls-26,.cls-34,.cls-35{font-family:RobotoCondensed-Bold, Roboto Condensed;font-weight:700;}.cls-2{letter-spacing:-0.07em;}.cls-3{letter-spacing:-0.02em;}.cls-4{letter-spacing:-0.03em;}.cls-5{letter-spacing:-0.03em;}.cls-6{letter-spacing:0em;}.cls-7{letter-spacing:0.02em;}.cls-8{letter-spacing:-0.06em;}.cls-9{letter-spacing:-0.07em;}.cls-10{letter-spacing:-0.07em;}.cls-11{fill:#ffe864;}.cls-12{fill:#c8c8c8;}.cls-13,.cls-39{fill:none;stroke-miterlimit:10;}.cls-13{stroke:#ffd500;stroke-width:1.25px;}.cls-14{font-size:35px;letter-spacing:0em;}.cls-14,.cls-18,.cls-35{fill:#cd171a;}.cls-15{letter-spacing:0em;}.cls-16{letter-spacing:0em;}.cls-17{letter-spacing:0em;}.cls-18,.cls-34{font-size:25px;}.cls-19{font-size:20.02px;}.cls-20{letter-spacing:-0.02em;}.cls-21{letter-spacing:-0.02em;}.cls-22{letter-spacing:-0.02em;}.cls-23{letter-spacing:-0.02em;}.cls-24{font-size:23.18px;}.cls-25{letter-spacing:0em;}.cls-26{font-size:35.2px;}.cls-27{letter-spacing:0em;}.cls-28{letter-spacing:-0.01em;}.cls-29{letter-spacing:0em;}.cls-30{letter-spacing:-0.06em;}.cls-31{letter-spacing:-0.05em;}.cls-32{letter-spacing:-0.06em;}.cls-33{letter-spacing:0em;}.cls-35{font-size:24.73px;}.cls-36{letter-spacing:0em;}.cls-37{letter-spacing:0em;}.cls-38{fill:#ffd500;}.cls-39{stroke:#dbd9dc;stroke-width:1.45px;}</style></defs><title>graf_str_01</title><text class="cls-1" transform="translate(68.23 58.31) scale(0.93 1)">1 <tspan class="cls-2" x="15.22" y="0">T</tspan><tspan x="24.94" y="0">ABLETKA Z</tspan><tspan class="cls-3" x="119.66" y="0">A</tspan><tspan x="131.61" y="0">WIE</tspan><tspan class="cls-3" x="162.83" y="0">R</tspan><tspan x="173.89" y="0">A 830 MG </tspan><tspan class="cls-4" x="259.67" y="0">K</tspan><tspan x="270.53" y="0">OMPLE</tspan><tspan class="cls-5" x="330.48" y="0">K</tspan><tspan class="cls-6" x="341.36" y="0">SU O</tspan><tspan class="cls-7" x="381.58" y="0">S</tspan><tspan x="393.11" y="0">SEINY I HYDRO</tspan><tspan class="cls-4" x="518.52" y="0">K</tspan><tspan class="cls-6" x="529.38" y="0">S</tspan><tspan class="cls-8" x="540.54" y="0">Y</tspan><tspan x="550.52" y="0">A</tspan><tspan class="cls-9" x="562.86" y="0">P</tspan><tspan class="cls-10" x="573.2" y="0">A</tspan><tspan x="584.03" y="0">TYTU: </tspan></text><rect class="cls-11" x="68.23" y="80.02" width="314.86" height="218.21"/><rect class="cls-12" x="383.09" y="80.02" width="278.07" height="218.21"/><line class="cls-13" x1="383.09" y1="298.23" x2="383.09" y2="80.02"/><text class="cls-14" transform="translate(170.55 131.41) scale(0.93 1)">OSS<tspan class="cls-15" x="58.51" y="0">E</tspan><tspan class="cls-16" x="75.51" y="0">IN</tspan><tspan class="cls-17" x="106.12" y="0">A</tspan></text><text class="cls-18" transform="translate(288.24 110.08) scale(0.54 0.58)">1</text><text class="cls-19" transform="translate(154.67 170.34) scale(0.93 1)"><tspan class="cls-20">C<tspan class="cls-21" x="11.03" y="0">Z</tspan><tspan x="21.25" y="0">Y</tspan><tspan class="cls-21" x="31.73" y="0">NN</tspan><tspan x="55.44" y="0">IKI</tspan><tspan class="cls-21" x="76.2" y="0"> </tspan><tspan x="80.41" y="0">W</tspan><tspan class="cls-21" x="95.02" y="0">ZR</tspan><tspan class="cls-22" x="115.92" y="0">OS</tspan><tspan class="cls-21" x="138.04" y="0">T</tspan><tspan class="cls-22" x="148.51" y="0">U</tspan></tspan><tspan class="cls-21" x="-3.74" y="24">(T</tspan><tspan class="cls-22" x="12.79" y="24">G</tspan><tspan class="cls-23" x="24.12" y="24">F</tspan><tspan x="33.24" y="24">-</tspan><tspan class="cls-24" x="40.51" y="24">β, </tspan><tspan class="cls-20" x="63.75" y="24">IG</tspan><tspan class="cls-21" x="80.11" y="24">F</tspan><tspan class="cls-20" x="89.23" y="24">-I</tspan><tspan class="cls-23" x="101.16" y="24">, </tspan><tspan class="cls-20" x="109.89" y="24">IG</tspan><tspan class="cls-23" x="126.25" y="24">F</tspan><tspan class="cls-22" x="135.37" y="24">-II</tspan><tspan class="cls-21" x="152.33" y="24">)</tspan><tspan x="158.4" y="24">,</tspan><tspan class="cls-20"><tspan x="12.3" y="48.02">OS</tspan><tspan class="cls-23" x="34.42" y="48.02">TE</tspan><tspan x="54.31" y="48.02">OK</tspan><tspan class="cls-21" x="76.7" y="48.02">A</tspan><tspan x="88.26" y="48.02">LCY</tspan><tspan class="cls-21" x="118.97" y="48.02">N</tspan><tspan class="cls-25" x="130.82" y="48.02">A</tspan><tspan class="cls-23" x="142.75" y="48.02">,</tspan></tspan><tspan class="cls-20" x="11.39" y="72.04">KOL</tspan><tspan class="cls-23" x="42.98" y="72.04">A</tspan><tspan class="cls-22" x="54.53" y="72.04">G</tspan><tspan class="cls-23" x="65.86" y="72.04">EN T</tspan><tspan class="cls-20" x="101.82" y="72.04">Y</tspan><tspan class="cls-21" x="112.29" y="72.04">P</tspan><tspan class="cls-22" x="123.28" y="72.04">U</tspan><tspan class="cls-23" x="134.33" y="72.04"> </tspan><tspan x="138.55" y="72.04">I</tspan><tspan class="cls-23" x="143.96" y="72.04"> </tspan></text><text class="cls-26" transform="translate(396.32 131.08) scale(0.93 1)"><tspan class="cls-27">HY</tspan><tspan class="cls-28" x="40.42" y="0">DR</tspan><tspan class="cls-29" x="79.44" y="0">OKS</tspan><tspan class="cls-30" x="138.74" y="0">Y</tspan><tspan class="cls-28" x="155.58" y="0">A</tspan><tspan class="cls-31" x="176.42" y="0">P</tspan><tspan class="cls-32" x="194.69" y="0">A</tspan><tspan class="cls-33" x="213.56" y="0">T</tspan><tspan class="cls-29" x="232.49" y="0">Y</tspan><tspan x="251.45" y="0">T</tspan></text><text class="cls-34" transform="translate(647 109.75) scale(0.54 0.58)">1</text><text class="cls-35" transform="translate(450.75 214.1) scale(0.93 1)"><tspan class="cls-36">W</tspan><tspan class="cls-37" x="18.43" y="0">APŃ, F</tspan><tspan class="cls-36" x="85.21" y="0">OS</tspan><tspan class="cls-37" x="113.29" y="0">F</tspan><tspan class="cls-36" x="124.93" y="0">O</tspan><tspan x="139.76" y="0">R</tspan></text><text class="cls-35" transform="translate(164.35 354.21) scale(0.93 1)">TWORZENIE </text><text class="cls-35" transform="translate(140.07 388.57) scale(0.93 1)">TKANKI KOSTNEJ</text><text class="cls-35" transform="translate(446.7 354.21) scale(0.93 1)">MINERALIZACJA </text><text class="cls-35" transform="translate(442.48 391.39) scale(0.93 1)">TKANKI KOSTNEJ</text><polygon class="cls-38" points="231.84 306.34 231.84 267.19 212.61 267.19 212.61 306.34 203 306.34 222.22 327.69 241.45 306.34 231.84 306.34"/><polygon class="cls-39" points="231.84 306.34 231.84 267.19 212.61 267.19 212.61 306.34 203 306.34 222.22 327.69 241.45 306.34 231.84 306.34"/><polygon class="cls-38" points="530.36 306.34 530.36 267.19 511.13 267.19 511.13 306.34 501.52 306.34 520.75 327.69 539.97 306.34 530.36 306.34"/><polygon class="cls-39" points="530.36 306.34 530.36 267.19 511.13 267.19 511.13 306.34 501.52 306.34 520.75 327.69 539.97 306.34 530.36 306.34"/></svg>